<svg viewBox="0 0 1440 495" fill="none" xmlns="http://www.w3.org/2000/svg">
<rect y="191" width="315" height="146" rx="10" fill="#C3E88C"/>
<text fill="#15505C" xml:space="preserve" style="white-space: pre" font-family="Inter" font-size="40" font-weight="600" letter-spacing="0em"><tspan x="110" y="278.545">Вход</tspan></text>
<rect x="506" width="460" height="141" rx="10" fill="#C3E88C"/>
<text fill="#15505C" xml:space="preserve" style="white-space: pre" font-family="Inter" font-size="40" font-weight="600" letter-spacing="0em"><tspan x="544" y="85.0455">асинхронный чанк A</tspan></text>
<rect x="1080" y="169" width="360" height="141" rx="10" fill="#C3E88C"/>
<text fill="#15505C" xml:space="preserve" style="white-space: pre" font-family="Inter" font-size="40" font-weight="600" letter-spacing="0em"><tspan x="1121.5" y="254.045">общий чанк C</tspan></text>
<rect x="506" y="354" width="460" height="141" rx="10" fill="#C3E88C"/>
<text fill="#15505C" xml:space="preserve" style="white-space: pre" font-family="Inter" font-size="40" font-weight="600" letter-spacing="0em"><tspan x="545.5" y="439.045">асинхронный чанк B</tspan></text>
<path d="M489.09 124.622C489.315 123.778 488.683 122.941 487.678 122.752L471.307 119.678C470.302 119.49 469.306 120.021 469.082 120.865C468.857 121.709 469.489 122.547 470.494 122.735L485.046 125.468L481.794 137.695C481.569 138.539 482.202 139.376 483.207 139.565C484.211 139.753 485.208 139.222 485.432 138.378L489.09 124.622ZM324.996 212.678L330.827 209.568L328.83 206.924L322.998 210.033L324.996 212.678ZM342.49 203.349L354.152 197.129L352.154 194.485L340.492 200.704L342.49 203.349ZM365.815 190.909L377.477 184.69L375.479 182.045L363.817 188.265L365.815 190.909ZM389.139 178.47L400.802 172.25L398.804 169.606L387.142 175.825L389.139 178.47ZM412.464 166.03L424.127 159.811L422.129 157.166L410.467 163.386L412.464 166.03ZM435.789 153.591L447.452 147.372L445.454 144.727L433.791 150.947L435.789 153.591ZM459.114 141.152L470.776 134.932L468.779 132.288L457.116 138.508L459.114 141.152ZM482.439 128.713L488.27 125.603L486.272 122.958L480.441 126.068L482.439 128.713ZM490.91 124.964C491.358 123.276 490.093 121.601 488.084 121.224L455.343 115.076C453.333 114.699 451.341 115.762 450.891 117.45C450.442 119.138 451.707 120.812 453.717 121.19L482.82 126.654L476.317 151.109C475.867 152.797 477.133 154.471 479.142 154.848C481.151 155.226 483.144 154.163 483.593 152.475L490.91 124.964ZM325.995 214L331.826 210.89L327.831 205.601L322 208.712L325.995 214ZM343.489 204.671L355.151 198.451L351.156 193.162L339.493 199.382L343.489 204.671ZM366.813 192.231L378.476 186.012L374.48 180.723L362.818 186.943L366.813 192.231ZM390.138 179.792L401.801 173.573L397.805 168.284L386.143 174.503L390.138 179.792ZM413.463 167.353L425.126 161.133L421.13 155.844L409.468 162.064L413.463 167.353ZM436.788 154.914L448.45 148.694L444.455 143.405L432.793 149.625L436.788 154.914ZM460.113 142.474L471.775 136.255L467.78 130.966L456.117 137.185L460.113 142.474ZM483.438 130.035L489.269 126.925L485.274 121.636L479.442 124.746L483.438 130.035Z" fill="#0B7285"/>
<path d="M487.821 411.383C488.802 411.086 489.36 410.044 489.066 409.054L484.271 392.926C483.978 391.937 482.943 391.375 481.962 391.671C480.98 391.968 480.423 393.011 480.717 394L484.979 408.336L470.76 412.633C469.779 412.929 469.222 413.972 469.516 414.961C469.81 415.951 470.844 416.513 471.826 416.216L487.821 411.383ZM323.88 322.941L329.685 326.094L331.445 322.8L325.641 319.647L323.88 322.941ZM341.294 332.401L352.903 338.708L354.663 335.415L343.054 329.107L341.294 332.401ZM364.512 345.015L376.121 351.322L377.882 348.028L366.272 341.721L364.512 345.015ZM387.731 357.629L399.34 363.936L401.099 360.642L389.491 354.335L387.731 357.629ZM410.949 370.243L422.558 376.55L424.318 373.256L412.709 366.949L410.949 370.243ZM434.167 382.856L445.776 389.164L447.536 385.87L435.927 379.563L434.167 382.856ZM457.385 395.47L468.995 401.777L470.755 398.483L459.146 392.177L457.385 395.47ZM480.604 408.085L486.408 411.238L488.168 407.944L482.363 404.791L480.604 408.085ZM488.353 413.175C490.317 412.582 491.431 410.496 490.843 408.517L481.255 376.262C480.667 374.283 478.599 373.159 476.636 373.752C474.672 374.345 473.558 376.431 474.146 378.41L482.668 407.081L454.233 415.674C452.27 416.267 451.155 418.352 451.744 420.332C452.332 422.312 454.4 423.435 456.363 422.841L488.353 413.175ZM323 324.588L328.805 327.741L332.325 321.154L326.521 318L323 324.588ZM340.414 334.048L352.023 340.355L355.543 333.768L343.934 327.46L340.414 334.048ZM363.632 346.662L375.241 352.969L378.762 346.381L367.153 340.074L363.632 346.662ZM386.85 359.276L398.46 365.582L401.98 358.995L390.37 352.688L386.85 359.276ZM410.069 371.89L421.678 378.197L425.198 371.609L413.589 365.302L410.069 371.89ZM433.287 384.503L444.896 390.811L448.417 384.223L436.807 377.916L433.287 384.503ZM456.505 397.117L468.114 403.424L471.634 396.836L460.026 390.53L456.505 397.117ZM479.724 409.731L485.528 412.885L489.049 406.297L483.244 403.144L479.724 409.731Z" fill="#0B7285"/>
<text fill="#0B7285" xml:space="preserve" style="white-space: pre" font-family="Inter" font-size="35" letter-spacing="0em"><tspan x="80" y="83.7273">динамический импорт</tspan></text>
<text fill="#1864AB" xml:space="preserve" style="white-space: pre" font-family="Inter" font-size="35" letter-spacing="0em"><tspan x="1013" y="83.7273">прямой импорт</tspan></text>
<path d="M1073.07 173.517C1074.41 173.124 1075.24 171.418 1074.94 169.706L1069.94 141.814C1069.63 140.102 1068.3 139.033 1066.95 139.427C1065.62 139.819 1064.78 141.525 1065.09 143.237L1069.54 168.03L1050.16 173.72C1048.82 174.113 1047.99 175.819 1048.29 177.531C1048.6 179.242 1049.93 180.311 1051.27 179.919L1073.07 173.517ZM978 98.3888L1071.2 173.112L1073.83 167.724L980.639 93L978 98.3888Z" fill="#1864AB"/>
<path d="M1074.97 315.114C1075.19 313.447 1074.28 311.868 1072.92 311.59L1050.89 307.042C1049.54 306.764 1048.26 307.889 1048.04 309.557C1047.81 311.225 1048.72 312.803 1050.07 313.081L1069.65 317.124L1066.38 341.281C1066.16 342.948 1067.07 344.527 1068.42 344.806C1069.77 345.085 1071.05 343.959 1071.27 342.292L1074.97 315.114ZM980.883 399L1073.95 317.101L1071.08 312.117L978 394.016L980.883 399Z" fill="#1864AB"/>
</svg>
